<?xml version="1.0" standalone="no"?>
<!DOCTYPE svg PUBLIC "-//W3C//DTD SVG 20010904//EN"
 "http://www.w3.org/TR/2001/REC-SVG-20010904/DTD/svg10.dtd">
<svg version="1.0" xmlns="http://www.w3.org/2000/svg"
 width="256.000000pt" height="256.000000pt" viewBox="0 0 256.000000 256.000000"
 preserveAspectRatio="xMidYMid meet">
<metadata>
Created by potrace 1.14, written by Peter Selinger 2001-2017
</metadata>
<g transform="translate(0.000000,256.000000) scale(0.100000,-0.100000)"
fill="#000000" stroke="none">
<path d="M1233 2229 c-6 -6 -9 -19 -6 -28 5 -13 80 -152 226 -421 16 -30 41
-67 54 -82 29 -30 23 -48 -14 -48 -19 0 -24 -4 -19 -16 4 -11 -4 -27 -21 -44
-16 -16 -46 -48 -68 -72 -23 -24 -53 -52 -68 -63 -25 -18 -40 -44 -41 -71 -1
-12 -574 -588 -588 -590 -4 -1 -15 -2 -23 -3 -15 -1 -32 -17 -102 -94 -24 -25
-52 -51 -63 -57 -11 -6 -17 -16 -14 -22 4 -7 3 -8 -5 -4 -6 4 -14 0 -17 -9 -4
-10 -13 -13 -25 -10 -20 7 -24 -13 -21 -88 1 -33 36 -105 60 -124 36 -29 92
-53 124 -53 80 -1 79 -1 74 25 -4 19 0 25 14 25 19 0 33 14 36 36 2 13 89 97
107 103 14 5 33 23 35 34 1 4 2 8 3 10 0 1 2 13 5 26 3 14 117 137 294 313
231 232 294 289 310 285 11 -3 20 -1 20 4 0 5 5 9 11 9 11 0 39 25 39 35 0 10
92 105 102 105 13 0 38 26 38 39 0 6 12 11 26 11 18 0 25 4 21 14 -3 8 0 22 7
31 11 15 25 4 124 -96 108 -108 113 -111 131 -95 11 10 70 67 132 128 l113
109 -115 115 c-101 102 -113 120 -73 115 14 -1 15 54 3 96 -11 36 -139 162
-167 164 -90 7 -94 6 -89 -18 6 -33 -8 -29 -55 17 -23 22 -45 40 -49 40 -3 0
-96 49 -206 110 -213 116 -241 128 -260 109z"/>
<path d="M550 2017 c-58 -29 -181 -150 -210 -206 -25 -50 -19 -78 25 -107 25
-16 27 -16 53 3 l28 21 233 -233 233 -232 90 90 90 89 -60 62 c-33 33 -137
140 -230 236 l-170 175 19 31 19 32 -26 31 c-31 37 -36 37 -94 8z"/>
<path d="M1420 922 l-86 -87 24 -25 c14 -14 62 -81 108 -150 45 -69 97 -141
116 -160 18 -20 66 -73 107 -118 41 -45 78 -82 84 -82 5 0 44 33 86 73 42 41
98 94 126 119 l49 46 -63 65 c-34 36 -81 86 -104 112 -23 26 -100 91 -172 145
-72 55 -141 111 -155 125 -13 14 -26 25 -29 24 -3 0 -44 -39 -91 -87z"/>
</g>
</svg>
